<mxfile host="Electron" modified="2023-07-31T02:28:57.689Z" agent="Mozilla/5.0 (Windows NT 10.0; Win64; x64) AppleWebKit/537.36 (KHTML, like Gecko) draw.io/21.6.5 Chrome/114.0.5735.243 Electron/25.3.1 Safari/537.36" etag="HQLDuKQaJari8IXAKsTr" version="21.6.5" type="device">
  <diagram name="Page-1" id="_j3hpBegp3JtoGSSy-X2">
    <mxGraphModel dx="2026" dy="1183" grid="1" gridSize="10" guides="1" tooltips="1" connect="1" arrows="1" fold="1" page="1" pageScale="1" pageWidth="850" pageHeight="1100" math="0" shadow="0">
      <root>
        <mxCell id="0" />
        <mxCell id="1" parent="0" />
        <mxCell id="Gr5qKLfUDZq7sFIgqH0i-1" value="" style="ellipse;html=1;shape=startState;fillColor=#000000;strokeColor=#ff0000;" parent="1" vertex="1">
          <mxGeometry x="410" width="30" height="30" as="geometry" />
        </mxCell>
        <mxCell id="Gr5qKLfUDZq7sFIgqH0i-2" value="" style="edgeStyle=orthogonalEdgeStyle;html=1;verticalAlign=bottom;endArrow=open;endSize=8;strokeColor=#ff0000;rounded=0;" parent="1" source="Gr5qKLfUDZq7sFIgqH0i-1" edge="1">
          <mxGeometry relative="1" as="geometry">
            <mxPoint x="425" y="80" as="targetPoint" />
          </mxGeometry>
        </mxCell>
        <mxCell id="Gr5qKLfUDZq7sFIgqH0i-3" value="ELEVATOR ENTRAPMENT" style="rounded=1;whiteSpace=wrap;html=1;arcSize=40;fontColor=#000000;fillColor=#ffffc0;strokeColor=#ff0000;" parent="1" vertex="1">
          <mxGeometry x="365" y="80" width="120" height="40" as="geometry" />
        </mxCell>
        <mxCell id="Gr5qKLfUDZq7sFIgqH0i-4" value="" style="edgeStyle=orthogonalEdgeStyle;html=1;verticalAlign=bottom;endArrow=open;endSize=8;strokeColor=#ff0000;rounded=0;" parent="1" source="Gr5qKLfUDZq7sFIgqH0i-3" edge="1">
          <mxGeometry relative="1" as="geometry">
            <mxPoint x="425" y="160" as="targetPoint" />
          </mxGeometry>
        </mxCell>
        <mxCell id="Gr5qKLfUDZq7sFIgqH0i-5" value="Situation Context" style="rounded=1;whiteSpace=wrap;html=1;arcSize=40;fontColor=#000000;fillColor=#ffffc0;strokeColor=#ff0000;" parent="1" vertex="1">
          <mxGeometry x="5" y="20" width="119" height="40" as="geometry" />
        </mxCell>
        <mxCell id="Gr5qKLfUDZq7sFIgqH0i-6" value="" style="edgeStyle=orthogonalEdgeStyle;html=1;verticalAlign=bottom;endArrow=open;endSize=8;strokeColor=#ff0000;rounded=0;" parent="1" edge="1">
          <mxGeometry relative="1" as="geometry">
            <mxPoint x="64.5" y="240" as="targetPoint" />
            <mxPoint x="65" y="180" as="sourcePoint" />
          </mxGeometry>
        </mxCell>
        <mxCell id="Gr5qKLfUDZq7sFIgqH0i-7" value="Flow" style="edgeLabel;html=1;align=center;verticalAlign=middle;resizable=0;points=[];" parent="Gr5qKLfUDZq7sFIgqH0i-6" vertex="1" connectable="0">
          <mxGeometry x="-0.3333" y="3" relative="1" as="geometry">
            <mxPoint x="-2" y="10" as="offset" />
          </mxGeometry>
        </mxCell>
        <mxCell id="Gr5qKLfUDZq7sFIgqH0i-8" value="Start Point" style="ellipse;html=1;shape=startState;fillColor=#000000;strokeColor=#ff0000;" parent="1" vertex="1">
          <mxGeometry x="50" y="250" width="29" height="30" as="geometry" />
        </mxCell>
        <mxCell id="Gr5qKLfUDZq7sFIgqH0i-9" value="End Point" style="ellipse;html=1;shape=endState;fillColor=#000000;strokeColor=#ff0000;" parent="1" vertex="1">
          <mxGeometry x="50" y="290" width="29" height="30" as="geometry" />
        </mxCell>
        <mxCell id="Gr5qKLfUDZq7sFIgqH0i-10" value="STEPS" style="shape=umlFrame;whiteSpace=wrap;html=1;pointerEvents=0;" parent="1" vertex="1">
          <mxGeometry y="70" width="129" height="90" as="geometry" />
        </mxCell>
        <mxCell id="Gr5qKLfUDZq7sFIgqH0i-11" value="STEP 1" style="shape=umlFrame;whiteSpace=wrap;html=1;pointerEvents=0;" parent="1" vertex="1">
          <mxGeometry x="270" y="160" width="310" height="80" as="geometry" />
        </mxCell>
        <mxCell id="Gr5qKLfUDZq7sFIgqH0i-12" value="CHECK CAMERA || CHECK ELEVATOR PANEL &lt;br&gt;AND CONFIRM WHICH ELEVATOR IS STUCK" style="text;html=1;align=center;verticalAlign=middle;resizable=0;points=[];autosize=1;strokeColor=none;fillColor=none;" parent="1" vertex="1">
          <mxGeometry x="280.2" y="200" width="290" height="40" as="geometry" />
        </mxCell>
        <mxCell id="Gr5qKLfUDZq7sFIgqH0i-13" value="STEP 2" style="shape=umlFrame;whiteSpace=wrap;html=1;pointerEvents=0;" parent="1" vertex="1">
          <mxGeometry x="230" y="270" width="390" height="100" as="geometry" />
        </mxCell>
        <mxCell id="Gr5qKLfUDZq7sFIgqH0i-14" value="USE ELEVATOR PHONE NEAR THE ELEVATOR PANEL TO&amp;nbsp;&lt;br&gt;ESTABLISH COMMUNICATION WITH PASSENGERS&lt;br&gt;||&lt;br&gt;USE TELEPHONE TO CONTACT (IF FEATURE IS AVAILABLE)" style="text;html=1;align=center;verticalAlign=middle;resizable=0;points=[];autosize=1;strokeColor=none;fillColor=none;" parent="1" vertex="1">
          <mxGeometry x="240" y="300" width="370" height="70" as="geometry" />
        </mxCell>
        <mxCell id="Gr5qKLfUDZq7sFIgqH0i-15" value="" style="edgeStyle=orthogonalEdgeStyle;html=1;verticalAlign=bottom;endArrow=open;endSize=8;strokeColor=#ff0000;rounded=0;" parent="1" edge="1">
          <mxGeometry relative="1" as="geometry">
            <mxPoint x="425" y="270" as="targetPoint" />
            <mxPoint x="425" y="240" as="sourcePoint" />
          </mxGeometry>
        </mxCell>
        <mxCell id="Gr5qKLfUDZq7sFIgqH0i-16" value="STEP 3" style="shape=umlFrame;whiteSpace=wrap;html=1;pointerEvents=0;" parent="1" vertex="1">
          <mxGeometry x="245" y="410" width="360" height="70" as="geometry" />
        </mxCell>
        <mxCell id="Gr5qKLfUDZq7sFIgqH0i-17" value="SPEAK CALMY, ASK PASSENGERS TO STAY CALM AND &lt;br&gt;NOT PANIC." style="text;html=1;align=center;verticalAlign=middle;resizable=0;points=[];autosize=1;strokeColor=none;fillColor=none;" parent="1" vertex="1">
          <mxGeometry x="250" y="440" width="340" height="40" as="geometry" />
        </mxCell>
        <mxCell id="Gr5qKLfUDZq7sFIgqH0i-18" value="" style="edgeStyle=orthogonalEdgeStyle;html=1;verticalAlign=bottom;endArrow=open;endSize=8;strokeColor=#ff0000;rounded=0;" parent="1" edge="1">
          <mxGeometry relative="1" as="geometry">
            <mxPoint x="424" y="410" as="targetPoint" />
            <mxPoint x="424" y="370" as="sourcePoint" />
          </mxGeometry>
        </mxCell>
        <mxCell id="Gr5qKLfUDZq7sFIgqH0i-19" value="STEP 4" style="shape=umlFrame;whiteSpace=wrap;html=1;pointerEvents=0;" parent="1" vertex="1">
          <mxGeometry x="245" y="520" width="360" height="90" as="geometry" />
        </mxCell>
        <mxCell id="Gr5qKLfUDZq7sFIgqH0i-20" value="ONCE THE PASSENGERS ARE CALM, ASK &lt;br&gt;- NAME AND UNIT&lt;br&gt;- NUMBER OF PEOPLE IN THE ELEVATOR&lt;br&gt;- CONFIRM IF THERE IS A MEDICAL EMERGENCY&amp;nbsp;" style="text;html=1;align=center;verticalAlign=middle;resizable=0;points=[];autosize=1;strokeColor=none;fillColor=none;" parent="1" vertex="1">
          <mxGeometry x="270.2" y="540" width="310" height="70" as="geometry" />
        </mxCell>
        <mxCell id="Gr5qKLfUDZq7sFIgqH0i-21" value="ALT STEP 1" style="shape=umlFrame;whiteSpace=wrap;html=1;pointerEvents=0;" parent="1" vertex="1">
          <mxGeometry x="7.599999999999994" y="740" width="360" height="70" as="geometry" />
        </mxCell>
        <mxCell id="Gr5qKLfUDZq7sFIgqH0i-22" value="REASSURE THE PASSENGERS THAT YOU WILL &lt;br&gt;PROMPTLY REQUEST ASSISTANCE AND KEEP &lt;br&gt;THEM INFORMED ABOUT&amp;nbsp;ANY DEVELOPMENTS" style="text;html=1;align=center;verticalAlign=middle;resizable=0;points=[];autosize=1;strokeColor=none;fillColor=none;" parent="1" vertex="1">
          <mxGeometry x="60" y="745" width="300" height="60" as="geometry" />
        </mxCell>
        <mxCell id="Gr5qKLfUDZq7sFIgqH0i-42" value="" style="edgeStyle=orthogonalEdgeStyle;html=1;verticalAlign=bottom;endArrow=open;endSize=8;strokeColor=#ff0000;rounded=0;" parent="1" edge="1">
          <mxGeometry relative="1" as="geometry">
            <mxPoint x="187.6" y="850" as="targetPoint" />
            <mxPoint x="187.6" y="810" as="sourcePoint" />
          </mxGeometry>
        </mxCell>
        <mxCell id="Gr5qKLfUDZq7sFIgqH0i-45" value="" style="edgeStyle=orthogonalEdgeStyle;html=1;verticalAlign=bottom;endArrow=open;endSize=8;strokeColor=#ff0000;rounded=0;" parent="1" edge="1">
          <mxGeometry relative="1" as="geometry">
            <mxPoint x="425" y="650" as="targetPoint" />
            <mxPoint x="425" y="610" as="sourcePoint" />
          </mxGeometry>
        </mxCell>
        <mxCell id="Gr5qKLfUDZq7sFIgqH0i-46" value="" style="edgeStyle=orthogonalEdgeStyle;html=1;verticalAlign=bottom;endArrow=open;endSize=8;strokeColor=#ff0000;rounded=0;" parent="1" edge="1">
          <mxGeometry relative="1" as="geometry">
            <mxPoint x="644.6999999999999" y="990" as="targetPoint" />
            <mxPoint x="644.7" y="940" as="sourcePoint" />
          </mxGeometry>
        </mxCell>
        <mxCell id="Gr5qKLfUDZq7sFIgqH0i-48" value="Condition" style="rhombus;whiteSpace=wrap;html=1;fontColor=#000000;fillColor=#ffffc0;strokeColor=#ff0000;" parent="1" vertex="1">
          <mxGeometry x="30" y="330" width="79" height="40" as="geometry" />
        </mxCell>
        <mxCell id="Gr5qKLfUDZq7sFIgqH0i-49" value="no" style="edgeStyle=orthogonalEdgeStyle;html=1;align=left;verticalAlign=bottom;endArrow=open;endSize=8;strokeColor=#ff0000;rounded=0;" parent="1" source="Gr5qKLfUDZq7sFIgqH0i-48" edge="1">
          <mxGeometry x="-1" relative="1" as="geometry">
            <mxPoint x="210" y="350" as="targetPoint" />
          </mxGeometry>
        </mxCell>
        <mxCell id="Gr5qKLfUDZq7sFIgqH0i-50" value="" style="edgeStyle=orthogonalEdgeStyle;html=1;align=left;verticalAlign=top;endArrow=open;endSize=8;strokeColor=#ff0000;rounded=0;" parent="1" edge="1">
          <mxGeometry x="0.2" y="60" relative="1" as="geometry">
            <mxPoint x="71" y="430" as="targetPoint" />
            <mxPoint x="71" y="370" as="sourcePoint" />
            <Array as="points">
              <mxPoint x="71" y="370" />
              <mxPoint x="71" y="370" />
            </Array>
            <mxPoint as="offset" />
          </mxGeometry>
        </mxCell>
        <mxCell id="Gr5qKLfUDZq7sFIgqH0i-51" value="yes" style="text;html=1;align=center;verticalAlign=middle;resizable=0;points=[];autosize=1;strokeColor=none;fillColor=none;" parent="1" vertex="1">
          <mxGeometry x="70" y="370" width="40" height="30" as="geometry" />
        </mxCell>
        <mxCell id="Gr5qKLfUDZq7sFIgqH0i-52" value="Condition" style="rhombus;whiteSpace=wrap;html=1;fontColor=#000000;fillColor=#ffffc0;strokeColor=#ff0000;" parent="1" vertex="1">
          <mxGeometry x="385.20000000000005" y="650" width="80" height="40" as="geometry" />
        </mxCell>
        <mxCell id="Gr5qKLfUDZq7sFIgqH0i-53" value="MED EMG" style="edgeStyle=orthogonalEdgeStyle;html=1;align=left;verticalAlign=bottom;endArrow=open;endSize=8;strokeColor=#ff0000;rounded=0;entryX=0.505;entryY=0;entryDx=0;entryDy=0;entryPerimeter=0;" parent="1" source="Gr5qKLfUDZq7sFIgqH0i-52" target="Gr5qKLfUDZq7sFIgqH0i-80" edge="1">
          <mxGeometry x="-0.4703" relative="1" as="geometry">
            <mxPoint x="685.35" y="738" as="targetPoint" />
            <Array as="points">
              <mxPoint x="647" y="670" />
            </Array>
            <mxPoint as="offset" />
          </mxGeometry>
        </mxCell>
        <mxCell id="Gr5qKLfUDZq7sFIgqH0i-54" value="NO MED EMG" style="edgeStyle=orthogonalEdgeStyle;html=1;align=left;verticalAlign=top;endArrow=open;endSize=8;strokeColor=#ff0000;rounded=0;exitX=0;exitY=0.5;exitDx=0;exitDy=0;entryX=0.496;entryY=0.014;entryDx=0;entryDy=0;entryPerimeter=0;" parent="1" source="Gr5qKLfUDZq7sFIgqH0i-52" target="Gr5qKLfUDZq7sFIgqH0i-21" edge="1">
          <mxGeometry x="-0.0492" y="-20" relative="1" as="geometry">
            <mxPoint x="180.0399999999999" y="735.9699999999998" as="targetPoint" />
            <Array as="points">
              <mxPoint x="186" y="670" />
            </Array>
            <mxPoint as="offset" />
          </mxGeometry>
        </mxCell>
        <mxCell id="Gr5qKLfUDZq7sFIgqH0i-72" value="" style="ellipse;html=1;shape=endState;fillColor=#000000;strokeColor=#ff0000;" parent="1" vertex="1">
          <mxGeometry x="405" y="1960" width="40" height="40" as="geometry" />
        </mxCell>
        <mxCell id="Gr5qKLfUDZq7sFIgqH0i-73" value="DISCLAIMER" style="swimlane;fontStyle=0;childLayout=stackLayout;horizontal=1;startSize=26;fillColor=#e51400;horizontalStack=0;resizeParent=1;resizeParentMax=0;resizeLast=0;collapsible=1;marginBottom=0;whiteSpace=wrap;html=1;fontColor=#ffffff;strokeColor=#B20000;" parent="1" vertex="1">
          <mxGeometry x="650" y="20" width="190" height="170" as="geometry" />
        </mxCell>
        <mxCell id="Gr5qKLfUDZq7sFIgqH0i-74" value="THIS MODULE IS DESIGNED TO TEST AND REFINE YOUR DECISION MAKING. &lt;br&gt;&lt;br&gt;THE MODULE USES GENERAL PROCEDURES, REFER TO YOUR RESPECTIVE BUILDING PROTOCOLS AND ADHERE TO THEM DURING DUTY" style="text;strokeColor=#B20000;fillColor=#e51400;align=center;verticalAlign=top;spacingLeft=4;spacingRight=4;overflow=hidden;rotatable=0;points=[[0,0.5],[1,0.5]];portConstraint=eastwest;whiteSpace=wrap;html=1;fontColor=#ffffff;" parent="Gr5qKLfUDZq7sFIgqH0i-73" vertex="1">
          <mxGeometry y="26" width="190" height="144" as="geometry" />
        </mxCell>
        <mxCell id="Gr5qKLfUDZq7sFIgqH0i-76" value="" style="edgeStyle=orthogonalEdgeStyle;html=1;verticalAlign=bottom;endArrow=open;endSize=8;strokeColor=#ff0000;rounded=0;" parent="1" edge="1">
          <mxGeometry relative="1" as="geometry">
            <mxPoint x="425" y="520" as="targetPoint" />
            <mxPoint x="425" y="480" as="sourcePoint" />
          </mxGeometry>
        </mxCell>
        <mxCell id="Gr5qKLfUDZq7sFIgqH0i-80" value="ALT STEP 1" style="shape=umlFrame;whiteSpace=wrap;html=1;pointerEvents=0;" parent="1" vertex="1">
          <mxGeometry x="465.20000000000005" y="740" width="360" height="70" as="geometry" />
        </mxCell>
        <mxCell id="Gr5qKLfUDZq7sFIgqH0i-82" value="" style="edgeStyle=orthogonalEdgeStyle;html=1;verticalAlign=bottom;endArrow=open;endSize=8;strokeColor=#ff0000;rounded=0;" parent="1" edge="1">
          <mxGeometry relative="1" as="geometry">
            <mxPoint x="644.7" y="850" as="targetPoint" />
            <mxPoint x="644.7" y="810" as="sourcePoint" />
          </mxGeometry>
        </mxCell>
        <mxCell id="Gr5qKLfUDZq7sFIgqH0i-86" value="AFTER 1ST CONTACT, IMMIDEATELY CALL ELEVATOR &lt;br&gt;COMPANY AND BREIF THEM OF SITUATION, ASK FOR&amp;nbsp;&lt;br&gt;TECHNICIAN ETA" style="text;html=1;align=center;verticalAlign=middle;resizable=0;points=[];autosize=1;strokeColor=none;fillColor=none;" parent="1" vertex="1">
          <mxGeometry x="12.599999999999994" y="875" width="340" height="60" as="geometry" />
        </mxCell>
        <mxCell id="Gr5qKLfUDZq7sFIgqH0i-87" value="ALT STEP 2" style="shape=umlFrame;whiteSpace=wrap;html=1;pointerEvents=0;" parent="1" vertex="1">
          <mxGeometry x="7.6" y="850" width="360" height="80" as="geometry" />
        </mxCell>
        <mxCell id="Gr5qKLfUDZq7sFIgqH0i-88" value="AFTER 1ST CONTACT, IMMIDEATELY CALL ELEVATOR &lt;br&gt;COMPANY, BREIF THEM OF SITUATION, ASK FOR TECHNICIAN &lt;br&gt;ETA, AND&amp;nbsp;&lt;br&gt;MAKE SURE TO INFORM THEM ABOUT MEDICAL EMERGENCY&amp;nbsp;" style="text;html=1;align=center;verticalAlign=middle;resizable=0;points=[];autosize=1;strokeColor=none;fillColor=none;" parent="1" vertex="1">
          <mxGeometry x="450.20000000000005" y="875" width="390" height="70" as="geometry" />
        </mxCell>
        <mxCell id="Gr5qKLfUDZq7sFIgqH0i-89" value="ALT STEP 2" style="shape=umlFrame;whiteSpace=wrap;html=1;pointerEvents=0;" parent="1" vertex="1">
          <mxGeometry x="450" y="850" width="390" height="90" as="geometry" />
        </mxCell>
        <mxCell id="Gr5qKLfUDZq7sFIgqH0i-90" value="FOLLOWING THE PREV. CALL, CALL 911, INFORM THEM&amp;nbsp;&lt;br&gt;OF THE SITUATION. ASK THEM THAT YOU NEED&amp;nbsp;&lt;br&gt;MEDICAL ASSISTANCE ON STANDBY WHEN THE&amp;nbsp;&lt;br&gt;PASSENGERS ARE OUT" style="text;html=1;align=center;verticalAlign=middle;resizable=0;points=[];autosize=1;strokeColor=none;fillColor=none;" parent="1" vertex="1">
          <mxGeometry x="470" y="1020" width="350" height="70" as="geometry" />
        </mxCell>
        <mxCell id="Gr5qKLfUDZq7sFIgqH0i-91" value="ALT STEP 3" style="shape=umlFrame;whiteSpace=wrap;html=1;pointerEvents=0;" parent="1" vertex="1">
          <mxGeometry x="465" y="990" width="360" height="100" as="geometry" />
        </mxCell>
        <mxCell id="Gr5qKLfUDZq7sFIgqH0i-92" value="" style="edgeStyle=orthogonalEdgeStyle;html=1;verticalAlign=bottom;endArrow=open;endSize=8;strokeColor=#ff0000;rounded=0;entryX=0.21;entryY=0.1;entryDx=0;entryDy=0;entryPerimeter=0;exitX=0.498;exitY=1;exitDx=0;exitDy=0;exitPerimeter=0;" parent="1" source="Gr5qKLfUDZq7sFIgqH0i-87" target="Gr5qKLfUDZq7sFIgqH0i-93" edge="1">
          <mxGeometry relative="1" as="geometry">
            <mxPoint x="187.6" y="960" as="targetPoint" />
            <mxPoint x="190" y="936" as="sourcePoint" />
            <Array as="points">
              <mxPoint x="188" y="930" />
              <mxPoint x="188" y="1130" />
              <mxPoint x="367" y="1130" />
            </Array>
          </mxGeometry>
        </mxCell>
        <mxCell id="Gr5qKLfUDZq7sFIgqH0i-93" value="" style="shape=line;html=1;strokeWidth=6;strokeColor=#ff0000;" parent="1" vertex="1">
          <mxGeometry x="325" y="1200" width="200" height="10" as="geometry" />
        </mxCell>
        <mxCell id="Gr5qKLfUDZq7sFIgqH0i-94" value="" style="edgeStyle=orthogonalEdgeStyle;html=1;verticalAlign=bottom;endArrow=open;endSize=8;strokeColor=#ff0000;rounded=0;" parent="1" source="Gr5qKLfUDZq7sFIgqH0i-93" edge="1">
          <mxGeometry relative="1" as="geometry">
            <mxPoint x="425" y="1280" as="targetPoint" />
          </mxGeometry>
        </mxCell>
        <mxCell id="Gr5qKLfUDZq7sFIgqH0i-95" value="" style="edgeStyle=orthogonalEdgeStyle;html=1;verticalAlign=bottom;endArrow=open;endSize=8;strokeColor=#ff0000;rounded=0;entryX=0.75;entryY=0.5;entryDx=0;entryDy=0;entryPerimeter=0;" parent="1" target="Gr5qKLfUDZq7sFIgqH0i-93" edge="1">
          <mxGeometry relative="1" as="geometry">
            <mxPoint x="644.4999999999999" y="1140" as="targetPoint" />
            <mxPoint x="644.5" y="1090" as="sourcePoint" />
            <Array as="points">
              <mxPoint x="645" y="1130" />
              <mxPoint x="475" y="1130" />
            </Array>
          </mxGeometry>
        </mxCell>
        <mxCell id="Gr5qKLfUDZq7sFIgqH0i-96" value="" style="shape=line;html=1;strokeWidth=6;strokeColor=#ff0000;" parent="1" vertex="1">
          <mxGeometry x="8" y="450" width="121" height="10" as="geometry" />
        </mxCell>
        <mxCell id="Gr5qKLfUDZq7sFIgqH0i-97" value="" style="edgeStyle=orthogonalEdgeStyle;html=1;verticalAlign=bottom;endArrow=open;endSize=8;strokeColor=#ff0000;rounded=0;" parent="1" source="Gr5qKLfUDZq7sFIgqH0i-96" edge="1">
          <mxGeometry relative="1" as="geometry">
            <mxPoint x="70" y="520" as="targetPoint" />
            <Array as="points">
              <mxPoint x="69" y="510" />
              <mxPoint x="70" y="510" />
            </Array>
          </mxGeometry>
        </mxCell>
        <mxCell id="Gr5qKLfUDZq7sFIgqH0i-99" value="Fork" style="text;html=1;align=center;verticalAlign=middle;resizable=0;points=[];autosize=1;strokeColor=none;fillColor=none;" parent="1" vertex="1">
          <mxGeometry x="45" y="430" width="50" height="30" as="geometry" />
        </mxCell>
        <mxCell id="Gr5qKLfUDZq7sFIgqH0i-100" value="CALL AND UPDATE PASSENGERS OF THE ETA, RE ASSES&lt;br&gt;THEIR SITUATION" style="text;html=1;align=center;verticalAlign=middle;resizable=0;points=[];autosize=1;strokeColor=none;fillColor=none;" parent="1" vertex="1">
          <mxGeometry x="245" y="1310" width="360" height="40" as="geometry" />
        </mxCell>
        <mxCell id="Gr5qKLfUDZq7sFIgqH0i-101" value="STEP 5" style="shape=umlFrame;whiteSpace=wrap;html=1;pointerEvents=0;" parent="1" vertex="1">
          <mxGeometry x="245" y="1280" width="360" height="70" as="geometry" />
        </mxCell>
        <mxCell id="Gr5qKLfUDZq7sFIgqH0i-102" value="CALL BACK ELEVATOR COMPANY EVERY &lt;br&gt;15-20 MINUTES FOR&amp;nbsp;UPDATED ETA.&amp;nbsp;" style="text;html=1;align=center;verticalAlign=middle;resizable=0;points=[];autosize=1;strokeColor=none;fillColor=none;" parent="1" vertex="1">
          <mxGeometry x="300" y="1410" width="260" height="40" as="geometry" />
        </mxCell>
        <mxCell id="Gr5qKLfUDZq7sFIgqH0i-103" value="STEP 6" style="shape=umlFrame;whiteSpace=wrap;html=1;pointerEvents=0;" parent="1" vertex="1">
          <mxGeometry x="245" y="1390" width="360" height="70" as="geometry" />
        </mxCell>
        <mxCell id="Gr5qKLfUDZq7sFIgqH0i-104" value="CALL BACK PASSENGERS EVERY 5-10 MINUTES &lt;br&gt;TO REASSES THEIR SITUATION" style="text;html=1;align=center;verticalAlign=middle;resizable=0;points=[];autosize=1;strokeColor=none;fillColor=none;" parent="1" vertex="1">
          <mxGeometry x="300" y="1515" width="300" height="40" as="geometry" />
        </mxCell>
        <mxCell id="Gr5qKLfUDZq7sFIgqH0i-105" value="STEP 7" style="shape=umlFrame;whiteSpace=wrap;html=1;pointerEvents=0;" parent="1" vertex="1">
          <mxGeometry x="245" y="1500" width="360" height="70" as="geometry" />
        </mxCell>
        <mxCell id="Gr5qKLfUDZq7sFIgqH0i-106" value="KEEP ANY MANUALS/KEYS READY &lt;br&gt;FOR THE TECHNICIAN (IF SPECIFIED)&amp;nbsp;" style="text;html=1;align=center;verticalAlign=middle;resizable=0;points=[];autosize=1;strokeColor=none;fillColor=none;" parent="1" vertex="1">
          <mxGeometry x="310" y="1625" width="240" height="40" as="geometry" />
        </mxCell>
        <mxCell id="Gr5qKLfUDZq7sFIgqH0i-107" value="STEP 8" style="shape=umlFrame;whiteSpace=wrap;html=1;pointerEvents=0;" parent="1" vertex="1">
          <mxGeometry x="245" y="1610" width="360" height="70" as="geometry" />
        </mxCell>
        <mxCell id="Gr5qKLfUDZq7sFIgqH0i-108" value="AFTER TECHNICIAN || PARAMEDICS ARE ON SITE, ENDURE&lt;br&gt;PASSENGERS ARE OUT SAFELY AND MEDICAL&lt;br&gt;ASSISTANCE HAVE BEEN ATTENDED" style="text;html=1;align=center;verticalAlign=middle;resizable=0;points=[];autosize=1;strokeColor=none;fillColor=none;" parent="1" vertex="1">
          <mxGeometry x="240" y="1750" width="370" height="60" as="geometry" />
        </mxCell>
        <mxCell id="Gr5qKLfUDZq7sFIgqH0i-109" value="STEP 9" style="shape=umlFrame;whiteSpace=wrap;html=1;pointerEvents=0;" parent="1" vertex="1">
          <mxGeometry x="245" y="1720" width="360" height="90" as="geometry" />
        </mxCell>
        <mxCell id="Gr5qKLfUDZq7sFIgqH0i-112" value="MAKE A DETAILED INCIDENT REPORT WITH&lt;br&gt;&amp;nbsp;TIME STAMPS OF EVERY STEP." style="text;html=1;align=center;verticalAlign=middle;resizable=0;points=[];autosize=1;strokeColor=none;fillColor=none;" parent="1" vertex="1">
          <mxGeometry x="300" y="1865" width="280" height="40" as="geometry" />
        </mxCell>
        <mxCell id="Gr5qKLfUDZq7sFIgqH0i-113" value="STEP 10" style="shape=umlFrame;whiteSpace=wrap;html=1;pointerEvents=0;" parent="1" vertex="1">
          <mxGeometry x="245" y="1850" width="360" height="70" as="geometry" />
        </mxCell>
        <mxCell id="Gr5qKLfUDZq7sFIgqH0i-114" value="REASSURE THE PASSENGERS THAT YOU WILL &lt;br&gt;PROMPTLY REQUEST ASSISTANCE AND KEEP &lt;br&gt;THEM INFORMED ABOUT&amp;nbsp;ANY DEVELOPMENTS" style="text;html=1;align=center;verticalAlign=middle;resizable=0;points=[];autosize=1;strokeColor=none;fillColor=none;" parent="1" vertex="1">
          <mxGeometry x="520" y="745" width="300" height="60" as="geometry" />
        </mxCell>
        <mxCell id="F8v40BVPzeYu6exPveZM-1" value="" style="edgeStyle=orthogonalEdgeStyle;html=1;verticalAlign=bottom;endArrow=open;endSize=8;strokeColor=#ff0000;rounded=0;" edge="1" parent="1">
          <mxGeometry relative="1" as="geometry">
            <mxPoint x="425" y="1390" as="targetPoint" />
            <mxPoint x="425" y="1350" as="sourcePoint" />
          </mxGeometry>
        </mxCell>
        <mxCell id="F8v40BVPzeYu6exPveZM-4" value="" style="edgeStyle=orthogonalEdgeStyle;html=1;verticalAlign=bottom;endArrow=open;endSize=8;strokeColor=#ff0000;rounded=0;" edge="1" parent="1">
          <mxGeometry relative="1" as="geometry">
            <mxPoint x="424" y="1500" as="targetPoint" />
            <mxPoint x="424" y="1460" as="sourcePoint" />
          </mxGeometry>
        </mxCell>
        <mxCell id="F8v40BVPzeYu6exPveZM-5" value="" style="edgeStyle=orthogonalEdgeStyle;html=1;verticalAlign=bottom;endArrow=open;endSize=8;strokeColor=#ff0000;rounded=0;" edge="1" parent="1">
          <mxGeometry relative="1" as="geometry">
            <mxPoint x="425" y="1610" as="targetPoint" />
            <mxPoint x="425" y="1570" as="sourcePoint" />
          </mxGeometry>
        </mxCell>
        <mxCell id="F8v40BVPzeYu6exPveZM-6" value="" style="edgeStyle=orthogonalEdgeStyle;html=1;verticalAlign=bottom;endArrow=open;endSize=8;strokeColor=#ff0000;rounded=0;" edge="1" parent="1">
          <mxGeometry relative="1" as="geometry">
            <mxPoint x="425" y="1720" as="targetPoint" />
            <mxPoint x="425" y="1680" as="sourcePoint" />
          </mxGeometry>
        </mxCell>
        <mxCell id="F8v40BVPzeYu6exPveZM-7" value="" style="edgeStyle=orthogonalEdgeStyle;html=1;verticalAlign=bottom;endArrow=open;endSize=8;strokeColor=#ff0000;rounded=0;" edge="1" parent="1">
          <mxGeometry relative="1" as="geometry">
            <mxPoint x="424" y="1850" as="targetPoint" />
            <mxPoint x="424" y="1810" as="sourcePoint" />
          </mxGeometry>
        </mxCell>
        <mxCell id="F8v40BVPzeYu6exPveZM-9" value="" style="edgeStyle=orthogonalEdgeStyle;html=1;verticalAlign=bottom;endArrow=open;endSize=8;strokeColor=#ff0000;rounded=0;" edge="1" parent="1">
          <mxGeometry relative="1" as="geometry">
            <mxPoint x="424" y="1960" as="targetPoint" />
            <mxPoint x="424" y="1920" as="sourcePoint" />
          </mxGeometry>
        </mxCell>
      </root>
    </mxGraphModel>
  </diagram>
</mxfile>
